{"title":"WWE Wrestlemania XXX DSR XviD - XWT","uid":9908795,"size":2367099223,"categoryP":"video","categoryS":"tv_shows","magnet":"?xt=urn:btih:fe55d114afb251ebbd16dad4c26dda22e09653c2&amp;dn=WWE+Wrestlemania+XXX+DSR+XviD+-+XWT&amp;tr=udp%3A%2F%2Ftracker.openbittorrent.com%3A80&amp;tr=udp%3A%2F%2Fopen.demonii.com%3A1337&amp;tr=udp%3A%2F%2Ftracker.coppersurfer.tk%3A6969&amp;tr=udp%3A%2F%2Fexodus.desync.com%3A6969","seeders":3,"leechers":0,"uploader":"tykoon123","files":-1,"time":1396854252,"description":" &lt;a href=&quot;http://pictureshoster.com/files/kt69hgtjeemkr4ze887r.jpg&quot; rel=&quot;nofollow&quot; target=&quot;_NEW&quot;&gt;http://pictureshoster.com/files/kt69hgtjeemkr4ze887r.jpg&lt;/a&gt;\n\n\n\nFormat                                   : AVI\nFormat/Info                              : Audio Video Interleave\nFile size                                : 2200 MiB\nOverall bit rate                         : 1 326 Kbps\nWriting library                          : MPlayer\n\nVideo\nID                                       : 0\nFormat                                   : MPEG-4 Visual\nFormat profile                           : Advanced Simple@L5\nFormat settings, BVOP                    : 2\nFormat settings, QPel                    : No\nFormat settings, GMC                     : No warppoints\nFormat settings, Matrix                  : Default (H.263)\nCodec ID                                 : XVID\nCodec ID/Hint                            : XviD\nBit rate                                 : 1 136 Kbps\nWidth                                    : 640 pixels\nHeight                                   : 368 pixels\nDisplay aspect ratio                     : 1.739\nFrame rate                               : 25.000 fps\nColor space                              : YUV\nChroma subsampling                       : 4:2:0\nBit depth                                : 8 bits\nScan type                                : Progressive\nCompression mode                         : Lossy\nBits/(Pixel*Frame)                       : 0.193\nStream size                              : 840 MiB (86%)\nWriting library                          : XviD 1.1.2 (UTC 2006-11-01)\n\nAudio\nID                                       : 1\nFormat                                   : MPEG Audio\nFormat version                           : Version 1\nFormat profile                           : Layer 3\nMode                                     : Joint stereo\nMode extension                           : MS Stereo\nCodec ID                                 : 55\nCodec ID/Hint                            : MP3\nBit rate mode                            : Constant\nBit rate                                 : 128 Kbps\nChannel(s)                               : 2 channels\nSampling rate                            : 44.1 KHz\nCompression mode                         : Lossy\nDelay relative to video                  : 40ms\nStream size                              : 94.6 MiB (10%)\nAlignment                                : Aligned on interleaves\n\n","torrent":{"xt":"urn:btih:fe55d114afb251ebbd16dad4c26dda22e09653c2","amp;dn":"WWE+Wrestlemania+XXX+DSR+XviD+-+XWT","amp;tr":["udp%3A%2F%2Ftracker.openbittorrent.com%3A80","udp%3A%2F%2Fopen.demonii.com%3A1337","udp%3A%2F%2Ftracker.coppersurfer.tk%3A6969","udp%3A%2F%2Fexodus.desync.com%3A6969"],"infoHash":"fe55d114afb251ebbd16dad4c26dda22e09653c2","infoHashBuffer":{"type":"Buffer","data":[254,85,209,20,175,178,81,235,189,22,218,212,194,109,218,34,224,150,83,194]},"announce":[],"urlList":[]}}